#tb 0: 1/25
#media_type 0: video
#codec_id 0: rawvideo
#dimensions 0: 176x144
#sar 0: 1/1
0,          0,          0,        1,    38016, 0xa6f15db5
0,          1,          1,        1,    38016, 0xa6f15db5
0,          2,          2,        1,    38016, 0xa6f15db5
0,          4,          4,        1,    38016, 0x5c4ef0e7
0,          5,          5,        1,    38016, 0x53a42d1d
0,          6,          6,        1,    38016, 0x68f7d89e
0,          7,          7,        1,    38016, 0xc15f4368
0,          8,          8,        1,    38016, 0xc15f4368
0,          9,          9,        1,    38016, 0xd1bd47a8
0,         10,         10,        1,    38016, 0xd1bd47a8
0,         11,         11,        1,    38016, 0xe1e821ca
0,         12,         12,        1,    38016, 0xe1e821ca
0,         13,         13,        1,    38016, 0xe1e821ca
0,         14,         14,        1,    38016, 0xe1e821ca
0,         15,         15,        1,    38016, 0xe1e821ca
